<svg width="136" height="54" viewBox="0 0 136 54" fill="none" xmlns="http://www.w3.org/2000/svg">
<path d="M15.1614 12.12C14.5054 12.12 13.9014 12.016 13.3494 11.808C12.8054 11.592 12.3294 11.292 11.9214 10.908C11.5134 10.516 11.1974 10.056 10.9734 9.528C10.7494 9 10.6374 8.424 10.6374 7.8C10.6374 7.176 10.7494 6.6 10.9734 6.072C11.1974 5.544 11.5134 5.088 11.9214 4.704C12.3374 4.312 12.8214 4.012 13.3734 3.804C13.9254 3.588 14.5294 3.48 15.1854 3.48C15.8974 3.48 16.5374 3.596 17.1054 3.828C17.6814 4.06 18.1654 4.4 18.5574 4.848L17.5734 5.808C17.2454 5.48 16.8894 5.24 16.5054 5.088C16.1294 4.928 15.7134 4.848 15.2574 4.848C14.8174 4.848 14.4094 4.92 14.0334 5.064C13.6574 5.208 13.3334 5.412 13.0614 5.676C12.7894 5.94 12.5774 6.252 12.4254 6.612C12.2814 6.972 12.2094 7.368 12.2094 7.8C12.2094 8.224 12.2814 8.616 12.4254 8.976C12.5774 9.336 12.7894 9.652 13.0614 9.924C13.3334 10.188 13.6534 10.392 14.0214 10.536C14.3894 10.68 14.7974 10.752 15.2454 10.752C15.6614 10.752 16.0614 10.688 16.4454 10.56C16.8374 10.424 17.2094 10.2 17.5614 9.888L18.4494 11.052C18.0094 11.404 17.4974 11.672 16.9134 11.856C16.3374 12.032 15.7534 12.12 15.1614 12.12ZM18.4494 11.052L16.9734 10.848V7.704H18.4494V11.052ZM20.5069 12V3.6H26.6389V4.908H22.0669V10.692H26.8069V12H20.5069ZM21.9469 8.376V7.092H26.1229V8.376H21.9469ZM28.546 12V3.6H31.99C33.11 3.6 33.986 3.864 34.618 4.392C35.258 4.92 35.578 5.652 35.578 6.588C35.578 7.204 35.434 7.736 35.146 8.184C34.858 8.624 34.446 8.964 33.91 9.204C33.382 9.436 32.746 9.552 32.002 9.552H29.41L30.106 8.844V12H28.546ZM34.042 12L31.918 8.952H33.586L35.722 12H34.042ZM30.106 9.012L29.41 8.268H31.93C32.618 8.268 33.134 8.12 33.478 7.824C33.83 7.528 34.006 7.116 34.006 6.588C34.006 6.052 33.83 5.64 33.478 5.352C33.134 5.064 32.618 4.92 31.93 4.92H29.41L30.106 4.152V9.012ZM37.3233 12V3.6H43.4553V4.908H38.8833V10.692H43.6233V12H37.3233ZM38.7633 8.376V7.092H42.9393V8.376H38.7633ZM45.3624 12V3.6H46.6464L51.9144 10.068H51.2784V3.6H52.8264V12H51.5424L46.2744 5.532H46.9104V12H45.3624ZM56.7812 12V4.92H53.9972V3.6H61.1252V4.92H58.3412V12H56.7812ZM62.296 12V3.6H68.428V4.908H63.856V10.692H68.596V12H62.296ZM63.736 8.376V7.092H67.912V8.376H63.736ZM73.6514 12V3.6H77.3234C78.2354 3.6 79.0354 3.776 79.7234 4.128C80.4114 4.48 80.9474 4.968 81.3314 5.592C81.7154 6.216 81.9074 6.952 81.9074 7.8C81.9074 8.64 81.7154 9.376 81.3314 10.008C80.9474 10.632 80.4114 11.12 79.7234 11.472C79.0354 11.824 78.2354 12 77.3234 12H73.6514ZM75.2114 10.68H77.2514C77.8754 10.68 78.4194 10.56 78.8834 10.32C79.3474 10.08 79.7034 9.744 79.9514 9.312C80.2074 8.88 80.3354 8.376 80.3354 7.8C80.3354 7.216 80.2074 6.712 79.9514 6.288C79.7034 5.856 79.3474 5.52 78.8834 5.28C78.4194 5.04 77.8754 4.92 77.2514 4.92H75.2114V10.68ZM83.5655 12V3.6H89.6975V4.908H85.1255V10.692H89.8655V12H83.5655ZM85.0055 8.376V7.092H89.1815V8.376H85.0055ZM94.921 12V3.6H96.481V10.68H100.873V12H94.921ZM105.888 12.12C105.232 12.12 104.628 12.012 104.076 11.796C103.524 11.58 103.044 11.28 102.636 10.896C102.228 10.504 101.912 10.048 101.688 9.528C101.464 9 101.352 8.424 101.352 7.8C101.352 7.176 101.464 6.604 101.688 6.084C101.912 5.556 102.228 5.1 102.636 4.716C103.044 4.324 103.524 4.02 104.076 3.804C104.628 3.588 105.228 3.48 105.876 3.48C106.532 3.48 107.132 3.588 107.676 3.804C108.228 4.02 108.708 4.324 109.116 4.716C109.524 5.1 109.84 5.556 110.064 6.084C110.288 6.604 110.4 7.176 110.4 7.8C110.4 8.424 110.288 9 110.064 9.528C109.84 10.056 109.524 10.512 109.116 10.896C108.708 11.28 108.228 11.58 107.676 11.796C107.132 12.012 106.536 12.12 105.888 12.12ZM105.876 10.752C106.3 10.752 106.692 10.68 107.052 10.536C107.412 10.392 107.724 10.188 107.988 9.924C108.252 9.652 108.456 9.34 108.6 8.988C108.752 8.628 108.828 8.232 108.828 7.8C108.828 7.368 108.752 6.976 108.6 6.624C108.456 6.264 108.252 5.952 107.988 5.688C107.724 5.416 107.412 5.208 107.052 5.064C106.692 4.92 106.3 4.848 105.876 4.848C105.452 4.848 105.06 4.92 104.7 5.064C104.348 5.208 104.036 5.416 103.764 5.688C103.5 5.952 103.292 6.264 103.14 6.624C102.996 6.976 102.924 7.368 102.924 7.8C102.924 8.224 102.996 8.616 103.14 8.976C103.292 9.336 103.5 9.652 103.764 9.924C104.028 10.188 104.34 10.392 104.7 10.536C105.06 10.68 105.452 10.752 105.876 10.752ZM113.186 12.12C112.65 12.12 112.154 12.016 111.698 11.808C111.25 11.6 110.882 11.3 110.594 10.908L111.482 9.84C111.714 10.16 111.966 10.4 112.238 10.56C112.518 10.72 112.822 10.8 113.15 10.8C114.022 10.8 114.458 10.284 114.458 9.252V4.908H111.47V3.6H116.018V9.168C116.018 10.16 115.774 10.9 115.286 11.388C114.806 11.876 114.106 12.12 113.186 12.12ZM116.842 12L120.622 3.6H122.158L125.95 12H124.318L121.066 4.428H121.69L118.45 12H116.842ZM118.582 10.056L119.002 8.832H123.538L123.958 10.056H118.582Z" fill="#FBF8FC"/>
<path d="M13.7823 46.32C12.0756 46.32 10.4863 46.0427 9.01425 45.488C7.56358 44.912 6.29425 44.112 5.20625 43.088C4.13958 42.0427 3.30758 40.816 2.71025 39.408C2.11292 38 1.81425 36.464 1.81425 34.8C1.81425 33.136 2.11292 31.6 2.71025 30.192C3.30758 28.784 4.15025 27.568 5.23825 26.544C6.32625 25.4987 7.59558 24.6987 9.04625 24.144C10.4969 23.568 12.0863 23.28 13.8143 23.28C15.6489 23.28 17.3236 23.6 18.8383 24.24C20.3529 24.8587 21.6329 25.7867 22.6783 27.024L19.9903 29.552C19.1796 28.6773 18.2729 28.0267 17.2703 27.6C16.2676 27.152 15.1796 26.928 14.0063 26.928C12.8329 26.928 11.7556 27.12 10.7743 27.504C9.81425 27.888 8.97158 28.432 8.24625 29.136C7.54225 29.84 6.98758 30.672 6.58225 31.632C6.19825 32.592 6.00625 33.648 6.00625 34.8C6.00625 35.952 6.19825 37.008 6.58225 37.968C6.98758 38.928 7.54225 39.76 8.24625 40.464C8.97158 41.168 9.81425 41.712 10.7743 42.096C11.7556 42.48 12.8329 42.672 14.0063 42.672C15.1796 42.672 16.2676 42.4587 17.2703 42.032C18.2729 41.584 19.1796 40.912 19.9903 40.016L22.6783 42.576C21.6329 43.792 20.3529 44.72 18.8383 45.36C17.3236 46 15.6383 46.32 13.7823 46.32ZM35.7853 46.32C34.0359 46.32 32.4253 46.032 30.9533 45.456C29.4813 44.88 28.2013 44.08 27.1133 43.056C26.0253 42.0107 25.1826 40.7947 24.5853 39.408C23.9879 38 23.6893 36.464 23.6893 34.8C23.6893 33.136 23.9879 31.6107 24.5853 30.224C25.1826 28.816 26.0253 27.6 27.1133 26.576C28.2013 25.5307 29.4813 24.72 30.9533 24.144C32.4253 23.568 34.0253 23.28 35.7533 23.28C37.5026 23.28 39.1026 23.568 40.5533 24.144C42.0253 24.72 43.3053 25.5307 44.3933 26.576C45.4813 27.6 46.3239 28.816 46.9213 30.224C47.5186 31.6107 47.8173 33.136 47.8173 34.8C47.8173 36.464 47.5186 38 46.9213 39.408C46.3239 40.816 45.4813 42.032 44.3933 43.056C43.3053 44.08 42.0253 44.88 40.5533 45.456C39.1026 46.032 37.5133 46.32 35.7853 46.32ZM35.7533 42.672C36.8839 42.672 37.9293 42.48 38.8893 42.096C39.8493 41.712 40.6813 41.168 41.3853 40.464C42.0893 39.7387 42.6333 38.9067 43.0173 37.968C43.4226 37.008 43.6253 35.952 43.6253 34.8C43.6253 33.648 43.4226 32.6027 43.0173 31.664C42.6333 30.704 42.0893 29.872 41.3853 29.168C40.6813 28.4427 39.8493 27.888 38.8893 27.504C37.9293 27.12 36.8839 26.928 35.7533 26.928C34.6226 26.928 33.5773 27.12 32.6173 27.504C31.6786 27.888 30.8466 28.4427 30.1213 29.168C29.4173 29.872 28.8626 30.704 28.4573 31.664C28.0733 32.6027 27.8813 33.648 27.8813 34.8C27.8813 35.9307 28.0733 36.976 28.4573 37.936C28.8626 38.896 29.4173 39.7387 30.1213 40.464C30.8253 41.168 31.6573 41.712 32.6173 42.096C33.5773 42.48 34.6226 42.672 35.7533 42.672ZM52.2268 46V23.6H55.6508L65.4428 39.952H63.6508L73.2828 23.6H76.7068L76.7388 46H72.8028L72.7708 29.776H73.6028L65.4108 43.44H63.5548L55.2348 29.776H56.1948V46H52.2268ZM92.4213 46.32C89.3493 46.32 86.9386 45.456 85.1893 43.728C83.4613 42 82.5973 39.504 82.5973 36.24V23.6H86.7573V36.08C86.7573 38.384 87.2479 40.0587 88.2292 41.104C89.2319 42.1493 90.6399 42.672 92.4533 42.672C94.2666 42.672 95.6639 42.1493 96.6453 41.104C97.6266 40.0587 98.1173 38.384 98.1173 36.08V23.6H102.213V36.24C102.213 39.504 101.339 42 99.5893 43.728C97.8613 45.456 95.4719 46.32 92.4213 46.32ZM108.039 46V23.6H111.463L121.255 39.952H119.463L129.095 23.6H132.519L132.551 46H128.615L128.583 29.776H129.415L121.223 43.44H119.367L111.047 29.776H112.007V46H108.039Z" fill="#FBF8FC"/>
</svg>
