<svg width="199" height="41" viewBox="0 0 199 41" fill="none" xmlns="http://www.w3.org/2000/svg">
<path d="M30.2758 39.0075C31.1662 38.1167 31.6663 36.9088 31.6663 35.6493V5.08354C31.6663 3.82371 31.1658 2.61551 30.2749 1.72467C29.3841 0.833839 28.1759 0.333269 26.916 0.333252H13.4407C12.181 0.333534 10.973 0.834186 10.0824 1.72504L1.72479 10.0827C0.833941 10.9733 0.33329 12.1813 0.333008 13.441V35.6493C0.333019 38.2731 2.45388 40.3996 5.07675 40.3996H26.9184C28.1778 40.399 29.3855 39.8982 30.2758 39.0075Z" fill="url(#paint0_linear_383_614)" stroke="#FBF8FC" stroke-width="0.666667" stroke-linecap="round" stroke-linejoin="round"/>
<path d="M8.94238 34.5253V17.7253H11.5104L22.0464 30.6613H20.7744V17.7253H23.8704V34.5253H21.3024L10.7664 21.5893H12.0384V34.5253H8.94238Z" fill="white"/>
<path d="M41.56 11.0065C40.7947 11.0065 40.09 10.8851 39.446 10.6425C38.8113 10.3905 38.256 10.0405 37.78 9.59245C37.304 9.13512 36.9353 8.59846 36.674 7.98245C36.4127 7.36645 36.282 6.69445 36.282 5.96645C36.282 5.23845 36.4127 4.56645 36.674 3.95045C36.9353 3.33445 37.304 2.80245 37.78 2.35445C38.2653 1.89712 38.83 1.54712 39.474 1.30445C40.118 1.05245 40.8227 0.926455 41.588 0.926455C42.4187 0.926455 43.1653 1.06179 43.828 1.33245C44.5 1.60312 45.0647 1.99979 45.522 2.52245L44.374 3.64245C43.9913 3.25979 43.576 2.97979 43.128 2.80245C42.6893 2.61579 42.204 2.52245 41.672 2.52245C41.1587 2.52245 40.6827 2.60645 40.244 2.77445C39.8053 2.94246 39.4273 3.18046 39.11 3.48845C38.7927 3.79645 38.5453 4.16045 38.368 4.58045C38.2 5.00045 38.116 5.46245 38.116 5.96645C38.116 6.46112 38.2 6.91845 38.368 7.33846C38.5453 7.75845 38.7927 8.12712 39.11 8.44445C39.4273 8.75246 39.8007 8.99046 40.23 9.15845C40.6593 9.32646 41.1353 9.41046 41.658 9.41046C42.1433 9.41046 42.61 9.33579 43.058 9.18646C43.5153 9.02779 43.9493 8.76645 44.36 8.40245L45.396 9.76046C44.8827 10.1711 44.2853 10.4838 43.604 10.6985C42.932 10.9038 42.2507 11.0065 41.56 11.0065ZM45.396 9.76046L43.674 9.52246V5.85445H45.396V9.76046ZM47.7965 10.8665V1.06645H54.9505V2.59245H49.6165V9.34046H55.1465V10.8665H47.7965ZM49.4765 6.63845V5.14045H54.3485V6.63845H49.4765ZM57.1754 10.8665V1.06645H61.1934C62.5 1.06645 63.522 1.37445 64.2594 1.99046C65.006 2.60645 65.3794 3.46045 65.3794 4.55245C65.3794 5.27112 65.2114 5.89179 64.8754 6.41445C64.5394 6.92779 64.0587 7.32445 63.4334 7.60445C62.8174 7.87512 62.0754 8.01045 61.2074 8.01045H58.1834L58.9954 7.18445V10.8665H57.1754ZM63.5874 10.8665L61.1094 7.31045H63.0554L65.5474 10.8665H63.5874ZM58.9954 7.38045L58.1834 6.51245H61.1234C61.926 6.51245 62.528 6.33979 62.9294 5.99445C63.34 5.64912 63.5454 5.16845 63.5454 4.55245C63.5454 3.92712 63.34 3.44645 62.9294 3.11045C62.528 2.77445 61.926 2.60645 61.1234 2.60645H58.1834L58.9954 1.71045V7.38045ZM67.4156 10.8665V1.06645H74.5696V2.59245H69.2356V9.34046H74.7656V10.8665H67.4156ZM69.0956 6.63845V5.14045H73.9676V6.63845H69.0956ZM76.7945 10.8665V1.06645H78.2925L84.4385 8.61245H83.6965V1.06645H85.5025V10.8665H84.0045L77.8585 3.32045H78.6005V10.8665H76.7945ZM90.1165 10.8665V2.60645H86.8685V1.06645H95.1845V2.60645H91.9365V10.8665H90.1165ZM96.5504 10.8665V1.06645H103.704V2.59245H98.3704V9.34046H103.9V10.8665H96.5504ZM98.2304 6.63845V5.14045H103.102V6.63845H98.2304Z" fill="#FBF8FC"/>
<path d="M37.49 38.8665V16.4665H43.698L55.09 30.0985H52.21V16.4665H59.57V38.8665H53.362L41.97 25.2345H44.85V38.8665H37.49ZM74.9528 39.3785C73.1394 39.3785 71.4541 39.0905 69.8968 38.5145C68.3608 37.9385 67.0274 37.1278 65.8968 36.0825C64.7661 35.0158 63.8808 33.7678 63.2408 32.3385C62.6221 30.9091 62.3128 29.3518 62.3128 27.6665C62.3128 25.9598 62.6221 24.4025 63.2408 22.9945C63.8808 21.5651 64.7661 20.3278 65.8968 19.2825C67.0274 18.2158 68.3608 17.3945 69.8968 16.8185C71.4541 16.2425 73.1394 15.9545 74.9528 15.9545C76.7874 15.9545 78.4728 16.2425 80.0088 16.8185C81.5448 17.3945 82.8781 18.2158 84.0088 19.2825C85.1394 20.3278 86.0141 21.5651 86.6328 22.9945C87.2728 24.4025 87.5928 25.9598 87.5928 27.6665C87.5928 29.3518 87.2728 30.9091 86.6328 32.3385C86.0141 33.7678 85.1394 35.0158 84.0088 36.0825C82.8781 37.1278 81.5448 37.9385 80.0088 38.5145C78.4728 39.0905 76.7874 39.3785 74.9528 39.3785ZM74.9528 33.2665C75.6568 33.2665 76.3074 33.1385 76.9048 32.8825C77.5234 32.6265 78.0568 32.2638 78.5048 31.7945C78.9741 31.3038 79.3368 30.7171 79.5928 30.0345C79.8488 29.3305 79.9768 28.5411 79.9768 27.6665C79.9768 26.7918 79.8488 26.0131 79.5928 25.3305C79.3368 24.6265 78.9741 24.0398 78.5048 23.5705C78.0568 23.0798 77.5234 22.7065 76.9048 22.4505C76.3074 22.1945 75.6568 22.0665 74.9528 22.0665C74.2488 22.0665 73.5874 22.1945 72.9688 22.4505C72.3714 22.7065 71.8381 23.0798 71.3688 23.5705C70.9208 24.0398 70.5688 24.6265 70.3128 25.3305C70.0568 26.0131 69.9288 26.7918 69.9288 27.6665C69.9288 28.5411 70.0568 29.3305 70.3128 30.0345C70.5688 30.7171 70.9208 31.3038 71.3688 31.7945C71.8381 32.2638 72.3714 32.6265 72.9688 32.8825C73.5874 33.1385 74.2488 33.2665 74.9528 33.2665ZM94.8853 38.8665V22.3225H88.3253V16.4665H108.997V22.3225H102.437V38.8665H94.8853ZM107.402 38.8665L117.194 16.4665H124.618L134.41 38.8665H126.602L119.37 20.0505H122.314L115.082 38.8665H107.402ZM113.226 34.9625L115.146 29.5225H125.45L127.37 34.9625H113.226ZM117.546 14.6425L121.77 9.52245H128.65L122.346 14.6425H117.546ZM141.374 38.8665L131.902 16.4665H140.03L147.742 35.3785H142.91L150.846 16.4665H158.27L148.798 38.8665H141.374ZM159.021 38.8665V16.4665H177.229V22.1625H166.445V33.1705H177.645V38.8665H159.021ZM165.933 30.2265V24.7865H175.917V30.2265H165.933ZM180.553 38.8665V16.4665H188.105V33.0105H198.217V38.8665H180.553Z" fill="#FBF8FC"/>
<defs>
<linearGradient id="paint0_linear_383_614" x1="25.3997" y1="3.51801" x2="-0.809149" y2="29.9889" gradientUnits="userSpaceOnUse">
<stop stop-color="#C5C5C7"/>
<stop offset="0.39185" stop-color="#97979A"/>
<stop offset="0.953874" stop-color="#4D4DFF"/>
</linearGradient>
</defs>
</svg>
