<svg width="22" height="22" viewBox="0 0 22 22" fill="none" xmlns="http://www.w3.org/2000/svg">
<path fill-rule="evenodd" clip-rule="evenodd" d="M3.66634 2.75C3.18011 2.75 2.7138 2.94315 2.36998 3.28697C2.02616 3.63079 1.83301 4.0971 1.83301 4.58333V17.4167C1.83301 17.9029 2.02616 18.3692 2.36998 18.713C2.7138 19.0568 3.18011 19.25 3.66634 19.25H18.333C18.8192 19.25 19.2856 19.0568 19.6294 18.713C19.9732 18.3692 20.1663 17.9029 20.1663 17.4167V4.58333C20.1663 4.0971 19.9732 3.63079 19.6294 3.28697C19.2856 2.94315 18.8192 2.75 18.333 2.75H3.66634ZM7.90592 7.91083C7.92627 7.73558 7.98729 7.56751 8.08412 7.42003C8.18095 7.27255 8.31091 7.14974 8.46363 7.06141C8.61635 6.97307 8.7876 6.92165 8.96372 6.91125C9.13984 6.90085 9.31595 6.93175 9.47801 7.0015C9.94001 7.1995 10.9153 7.645 12.151 8.35817C13.0194 8.85448 13.8581 9.40114 14.6627 9.99533C14.8041 10.1006 14.919 10.2375 14.9982 10.395C15.0774 10.5526 15.1186 10.7265 15.1186 10.9028C15.1186 11.0792 15.0774 11.2531 14.9982 11.4106C14.919 11.5682 14.8041 11.7051 14.6627 11.8103C13.858 12.4039 13.0194 12.9499 12.151 13.4457C11.2872 13.9502 10.3947 14.4038 9.47801 14.8042C9.31597 14.8741 9.13981 14.9052 8.96362 14.8949C8.78743 14.8846 8.61609 14.8332 8.46332 14.7448C8.31054 14.6564 8.18056 14.5335 8.08378 14.3859C7.98699 14.2384 7.92608 14.0702 7.90592 13.8948C7.79594 12.9013 7.74207 11.9024 7.74459 10.9028C7.74459 9.48108 7.84726 8.41042 7.90592 7.91083Z" fill="#FBF8FC"/>
</svg>
