<svg width="50" height="20" viewBox="0 0 50 20" fill="none" xmlns="http://www.w3.org/2000/svg">
<g clip-path="url(#clip0_439_531)">
<path d="M6.71904 3.30867L6.72654 3.27367L6.74654 3.12617L5.82154 3.12117C4.98654 3.11617 4.73029 3.12117 4.70779 3.14242C4.69654 3.15242 4.40779 4.24867 3.89404 6.23367C3.64904 7.18117 3.44279 7.93742 3.43529 7.91492C3.42779 7.89242 3.13529 6.81117 2.78279 5.51242C2.57176 4.71834 2.35342 3.92623 2.12779 3.13617C2.11529 3.12367 0.995292 3.11867 0.0877919 3.12617C-0.0434581 3.12742 -0.117208 2.86992 1.26029 7.24992C1.45029 7.85617 1.73654 8.71492 1.89404 9.15742C2.07654 9.66742 2.20654 10.0624 2.29529 10.3912C2.45279 11.0174 2.45779 11.4099 2.42404 11.8687C2.38404 12.3974 2.37904 16.1349 2.41779 16.1974C2.44779 16.2449 4.19904 16.2674 4.36529 16.2224C4.39154 16.2149 4.40904 16.1899 4.42154 16.0487C4.46279 15.9274 4.46654 15.4437 4.46654 13.4362V10.8724L4.57904 10.5187C4.65279 10.2874 4.83654 9.67867 4.98904 9.16617L5.39779 7.80367C6.05904 5.64867 6.68904 3.52992 6.70654 3.40867L6.72029 3.30992L6.71904 3.30867ZM16.5265 6.41867V6.55242H16.5053L16.494 10.2437L16.4828 13.8224L16.1965 14.1137C15.8753 14.4399 15.619 14.5649 15.3865 14.5062C15.1328 14.4424 15.1403 14.5412 15.119 10.3112L15.099 6.41742H13.2565V6.55117H13.2353V10.7762C13.2353 15.3024 13.2353 15.2999 13.4653 15.7537C13.6478 16.1162 13.9153 16.2924 14.3715 16.3524C14.9728 16.4324 15.6215 16.1599 16.2228 15.5749L16.484 15.3212V15.7599C16.484 16.1387 16.4953 16.2012 16.564 16.2199C16.6765 16.2512 18.0715 16.2537 18.2215 16.2224L18.3465 16.1962V16.0662L18.3678 16.0624V6.39242L16.5278 6.41742L16.5265 6.41867ZM11.854 8.32617C11.679 7.57742 11.3528 7.07367 10.814 6.72617C9.96904 6.17992 9.00279 6.12117 8.10779 6.56367C7.45529 6.88617 7.03404 7.42117 6.81779 8.20617C6.79013 8.3006 6.77047 8.39719 6.75904 8.49492C6.70404 8.77242 6.69779 9.18492 6.68279 11.1112C6.66029 14.0787 6.69529 14.4312 7.06654 15.1049C7.43154 15.7662 8.18779 16.2512 9.01154 16.3512C9.25904 16.3812 9.76154 16.3349 10.0515 16.2537C10.7078 16.0712 11.3378 15.5524 11.6165 14.9637C11.7393 14.7279 11.8193 14.4723 11.8528 14.2087C11.934 13.7674 11.9403 13.0524 11.9403 11.2324C11.9403 8.91117 11.9328 8.65742 11.8553 8.32492L11.854 8.32617ZM9.75279 14.3749C9.56218 14.4976 9.33139 14.5415 9.10904 14.4974C8.94029 14.4612 8.71154 14.1962 8.64154 13.9549C8.55404 13.6537 8.54779 9.46242 8.62279 8.64117C8.74779 8.22992 9.09529 8.01492 9.47529 8.11742C9.77154 8.19742 9.92279 8.38242 10.009 8.77117C10.0728 9.05992 10.0803 9.41867 10.0665 11.5299C10.0578 12.9299 10.0528 13.6149 10.0065 13.9824C9.96029 14.2137 9.88279 14.2762 9.75279 14.3762V14.3749ZM44.9303 10.4324H45.8203L45.8065 9.62617C45.7928 8.88617 45.7815 8.80242 45.6828 8.60117C45.5265 8.28492 45.2965 8.14367 44.9315 8.14367C44.4928 8.14367 44.2153 8.35617 44.084 8.79117C44.0278 8.97617 43.969 10.2499 44.0115 10.3599C44.0353 10.4212 44.1628 10.4324 44.9303 10.4324ZM38.9803 8.59867C38.9273 8.48754 38.8421 8.39494 38.7358 8.33295C38.6294 8.27097 38.5068 8.24247 38.384 8.25117C38.1512 8.26782 37.9293 8.3565 37.749 8.50492L37.5903 8.62617V14.4187L37.749 14.5399C38.109 14.8149 38.504 14.8724 38.7765 14.6899C38.8896 14.6104 38.9717 14.4943 39.009 14.3612C39.0803 14.1562 39.0865 13.8924 39.0778 11.4549C39.0678 8.91492 39.0628 8.76492 38.9803 8.59867Z" fill="#FBF8FC"/>
<path d="M50.0178 5.98865C49.8403 3.8624 49.6991 3.1724 49.2616 2.28615C48.6803 1.1124 47.8416 0.49365 46.6466 0.3574C45.7228 0.2524 42.2453 0.10365 39.0291 0.0324003C33.4591 -0.0913497 24.3016 0.1474 23.1316 0.44615C22.6094 0.574171 22.1348 0.849199 21.7641 1.23865C21.0253 1.97365 20.5841 3.02865 20.4078 4.48865C20.0041 7.82115 19.9953 11.8462 20.3841 15.2999C20.5516 16.7849 20.8966 17.7499 21.5441 18.5449C21.9478 19.0412 22.6453 19.4624 23.2678 19.5887C23.7053 19.6774 25.8928 19.7999 29.0803 19.9137C29.5553 19.9312 30.8116 19.9599 31.8741 19.9787C34.0866 20.0174 38.1553 19.9949 40.4816 19.9299C42.0466 19.8862 44.8991 19.7699 45.4328 19.7287C45.5828 19.7174 45.9303 19.6949 46.2053 19.6799C47.1291 19.6274 47.7166 19.4349 48.2678 19.0012C48.9816 18.4399 49.5341 17.4037 49.7678 16.1874C49.9891 15.0374 50.1366 12.9887 50.1666 10.6624C50.1916 8.71865 50.1578 7.67115 50.0178 5.98615V5.98865ZM27.8378 5.21865L26.8028 5.23115L26.7578 16.2687L25.8603 16.2799C25.1666 16.2899 24.9553 16.2787 24.9391 16.2349C24.9266 16.2037 24.9128 13.7149 24.9066 10.7049L24.8953 5.23115L22.8741 5.20615V3.48115L28.8478 3.5049L28.8728 5.2049L27.8378 5.21865ZM34.1841 11.5449V16.2912H32.5491V15.7912C32.5491 15.4149 32.5353 15.2912 32.4903 15.2912C32.4578 15.2912 32.3103 15.4149 32.1616 15.5662C31.8378 15.8949 31.4553 16.1587 31.1278 16.2812C30.4503 16.5349 29.8078 16.3862 29.5341 15.9149C29.2828 15.4837 29.2791 15.3862 29.2791 10.9087V6.79615H30.9128L30.9253 10.6687C30.9378 14.4737 30.9391 14.5437 31.0303 14.6987C31.1516 14.9037 31.3353 14.9599 31.6278 14.8787C31.8003 14.8312 31.9178 14.7474 32.1966 14.4699L32.5491 14.1199V6.79615H34.1841V11.5424V11.5449ZM40.5616 15.6137C40.4178 15.9349 40.0966 16.2487 39.8328 16.3262C39.1466 16.5287 38.5953 16.3637 37.9591 15.7649C37.7616 15.5787 37.5778 15.4287 37.5503 15.4287C37.517 15.4287 37.4999 15.5724 37.4991 15.8599V16.2912H35.8641V3.48115H37.4991V5.57115C37.4991 6.7199 37.5141 7.66115 37.5328 7.66115C37.5516 7.66115 37.7241 7.50865 37.9166 7.32365C38.3591 6.8974 38.7278 6.7099 39.1966 6.6749C40.0328 6.61115 40.5316 7.0424 40.7591 8.0249C40.8303 8.33115 40.8366 8.68115 40.8366 11.5224C40.8366 14.9824 40.8378 14.9974 40.5616 15.6137ZM47.4803 13.7137C47.4705 14.0185 47.4383 14.3222 47.3841 14.6224C47.1566 15.4649 46.5516 16.0624 45.6766 16.3074C44.4991 16.6374 43.2016 16.0974 42.6841 15.0612C42.3941 14.4799 42.3828 14.3637 42.3828 11.5224C42.3828 9.20615 42.3916 8.92115 42.4653 8.6049C42.6753 7.71115 43.1953 7.1324 44.0766 6.81115C44.3316 6.71865 44.5978 6.6699 44.8641 6.6649C45.8153 6.6449 46.7578 7.15615 47.1541 7.98865C47.4203 8.5499 47.4541 8.79115 47.4803 10.3737L47.5041 11.7937L44.0178 11.8174L44.0053 12.7712C43.9866 14.1174 44.0778 14.5312 44.4416 14.7749C44.7466 14.9812 45.2166 14.9649 45.4716 14.7412C45.7116 14.5312 45.7791 14.3049 45.8028 13.6449L45.8241 13.0662H47.5078L47.4803 13.7137Z" fill="#FBF8FC"/>
</g>
<defs>
<clipPath id="clip0_439_531">
<rect width="50" height="20" fill="white"/>
</clipPath>
</defs>
</svg>
