<svg width="100" height="21" viewBox="0 0 100 21" fill="none" xmlns="http://www.w3.org/2000/svg">
<path d="M15.1126 19.4716C15.5571 19.0269 15.8067 18.424 15.8067 17.7953V2.53772C15.8067 1.90884 15.5569 1.30574 15.1122 0.861062C14.6675 0.416383 14.0644 0.166512 13.4355 0.166504H6.70902C6.08022 0.166645 5.47722 0.416556 5.03264 0.861243L0.860755 5.03313C0.416068 5.4777 0.166156 6.08071 0.166016 6.70951V17.7953C0.166021 19.105 1.2247 20.1665 2.53396 20.1665H13.4367C14.0654 20.1662 14.6682 19.9162 15.1126 19.4716Z" fill="url(#paint0_linear_439_559)" stroke="#FBF8FC" stroke-width="0.332781" stroke-linecap="round" stroke-linejoin="round"/>
<path d="M4.46191 17.2342V8.84814H5.74379L11.0031 15.3054H10.3681V8.84814H11.9136V17.2342H10.6317L5.3724 10.7769H6.00735V17.2342H4.46191Z" fill="white"/>
<path d="M20.4383 5.34562C20.0563 5.34562 19.7046 5.28505 19.3831 5.16392C19.0663 5.03813 18.7891 4.86342 18.5515 4.63979C18.3139 4.4115 18.1298 4.14361 17.9994 3.83612C17.8689 3.52863 17.8037 3.19319 17.8037 2.82979C17.8037 2.46639 17.8689 2.13095 17.9994 1.82346C18.1298 1.51597 18.3139 1.25041 18.5515 1.02678C18.7937 0.798495 19.0756 0.623784 19.3971 0.502652C19.7185 0.376861 20.0703 0.313965 20.4523 0.313965C20.867 0.313965 21.2397 0.381519 21.5705 0.516629C21.9059 0.651738 22.1878 0.849743 22.4161 1.11064L21.843 1.66972C21.652 1.4787 21.4447 1.33893 21.221 1.25041C21.0021 1.15723 20.7598 1.11064 20.4942 1.11064C20.238 1.11064 20.0004 1.15257 19.7814 1.23643C19.5625 1.3203 19.3738 1.4391 19.2154 1.59284C19.057 1.74659 18.9335 1.92829 18.845 2.13794C18.7611 2.34759 18.7192 2.57821 18.7192 2.82979C18.7192 3.07672 18.7611 3.305 18.845 3.51466C18.9335 3.72431 19.057 3.90834 19.2154 4.06674C19.3738 4.22048 19.5601 4.33929 19.7744 4.42315C19.9888 4.50701 20.2264 4.54894 20.4873 4.54894C20.7295 4.54894 20.9625 4.51167 21.1861 4.43713C21.4144 4.35792 21.631 4.22747 21.836 4.04577L22.3532 4.72365C22.0969 4.92864 21.7988 5.08472 21.4586 5.19187C21.1232 5.29437 20.7831 5.34562 20.4383 5.34562ZM22.3532 4.72365L21.4936 4.60485V2.77388H22.3532V4.72365Z" fill="#FBF8FC"/>
<path d="M23.5514 5.27573V0.383849H27.1225V1.14559H24.4599V4.514H27.2203V5.27573H23.5514ZM24.39 3.16523V2.41748H26.822V3.16523H24.39Z" fill="#FBF8FC"/>
<path d="M28.2331 5.27573V0.383849H30.2388C30.891 0.383849 31.4012 0.537594 31.7692 0.845084C32.1419 1.15257 32.3283 1.57887 32.3283 2.12396C32.3283 2.4827 32.2444 2.79252 32.0767 3.05342C31.909 3.30966 31.6691 3.50767 31.3569 3.64743C31.0494 3.78254 30.679 3.8501 30.2458 3.8501H28.7363L29.1416 3.43778V5.27573H28.2331ZM31.4338 5.27573L30.1968 3.50068H31.1682L32.4122 5.27573H31.4338ZM29.1416 3.53562L28.7363 3.10234H30.2038C30.6045 3.10234 30.905 3.01615 31.1053 2.84377C31.3103 2.67139 31.4128 2.43145 31.4128 2.12396C31.4128 1.81181 31.3103 1.57188 31.1053 1.40416C30.905 1.23643 30.6045 1.15257 30.2038 1.15257H28.7363L29.1416 0.705316V3.53562Z" fill="#FBF8FC"/>
<path d="M33.3447 5.27573V0.383849H36.9158V1.14559H34.2532V4.514H37.0136V5.27573H33.3447ZM34.1833 3.16523V2.41748H36.6153V3.16523H34.1833Z" fill="#FBF8FC"/>
<path d="M38.0264 5.27573V0.383849H38.7742L41.8421 4.1506H41.4717V0.383849H42.3732V5.27573H41.6254L38.5575 1.50898H38.9279V5.27573H38.0264Z" fill="#FBF8FC"/>
<path d="M44.6764 5.27573V1.15257H43.0551V0.383849H47.2062V1.15257H45.5849V5.27573H44.6764Z" fill="#FBF8FC"/>
<path d="M47.888 5.27573V0.383849H51.4591V1.14559H48.7965V4.514H51.5569V5.27573H47.888ZM48.7266 3.16523V2.41748H51.1586V3.16523H48.7266Z" fill="#FBF8FC"/>
<path d="M18.4065 19.7634V8.58193H21.5054L27.1919 15.3866H25.7543V8.58193H29.4282V19.7634H26.3294L20.6428 12.9587H22.0804V19.7634H18.4065Z" fill="#FBF8FC"/>
<path d="M37.1069 20.019C36.2017 20.019 35.3604 19.8752 34.583 19.5877C33.8163 19.3001 33.1507 18.8955 32.5864 18.3737C32.022 17.8412 31.58 17.2183 31.2605 16.5048C30.9517 15.7913 30.7973 15.0139 30.7973 14.1727C30.7973 13.3207 30.9517 12.5434 31.2605 11.8405C31.58 11.127 32.022 10.5094 32.5864 9.9876C33.1507 9.45515 33.8163 9.04516 34.583 8.75764C35.3604 8.47011 36.2017 8.32635 37.1069 8.32635C38.0227 8.32635 38.8639 8.47011 39.6307 8.75764C40.3974 9.04516 41.063 9.45515 41.6274 9.9876C42.1917 10.5094 42.6284 11.127 42.9372 11.8405C43.2566 12.5434 43.4164 13.3207 43.4164 14.1727C43.4164 15.0139 43.2566 15.7913 42.9372 16.5048C42.6284 17.2183 42.1917 17.8412 41.6274 18.3737C41.063 18.8955 40.3974 19.3001 39.6307 19.5877C38.8639 19.8752 38.0227 20.019 37.1069 20.019ZM37.1069 16.968C37.4583 16.968 37.7831 16.9041 38.0812 16.7763C38.3901 16.6485 38.6563 16.4675 38.8799 16.2332C39.1142 15.9883 39.2952 15.6955 39.423 15.3547C39.5508 15.0033 39.6147 14.6093 39.6147 14.1727C39.6147 13.736 39.5508 13.3474 39.423 13.0066C39.2952 12.6552 39.1142 12.3623 38.8799 12.128C38.6563 11.8831 38.3901 11.6968 38.0812 11.569C37.7831 11.4412 37.4583 11.3773 37.1069 11.3773C36.7554 11.3773 36.4253 11.4412 36.1165 11.569C35.8183 11.6968 35.5521 11.8831 35.3178 12.128C35.0942 12.3623 34.9185 12.6552 34.7907 13.0066C34.6629 13.3474 34.599 13.736 34.599 14.1727C34.599 14.6093 34.6629 15.0033 34.7907 15.3547C34.9185 15.6955 35.0942 15.9883 35.3178 16.2332C35.5521 16.4675 35.8183 16.6485 36.1165 16.7763C36.4253 16.9041 36.7554 16.968 37.1069 16.968Z" fill="#FBF8FC"/>
<path d="M47.0566 19.7634V11.5051H43.782V8.58193H54.1009V11.5051H50.8263V19.7634H47.0566Z" fill="#FBF8FC"/>
<path d="M53.3045 19.7634L58.1924 8.58193H61.8982L66.7861 19.7634H62.8886L59.2786 10.371H60.7481L57.1381 19.7634H53.3045ZM56.2117 17.8146L57.1701 15.0991H62.3135L63.2719 17.8146H56.2117ZM58.3681 7.67144L60.4766 5.11568H63.9109L60.7641 7.67144H58.3681Z" fill="#FBF8FC"/>
<path d="M70.2623 19.7634L65.5342 8.58193H69.5915L73.4411 18.0223H71.0291L74.9905 8.58193H78.6964L73.9682 19.7634H70.2623Z" fill="#FBF8FC"/>
<path d="M79.0715 19.7634V8.58193H88.1604V11.4252H82.7773V16.9201H88.3681V19.7634H79.0715ZM82.5218 15.4505V12.735H87.5055V15.4505H82.5218Z" fill="#FBF8FC"/>
<path d="M89.8193 19.7634V8.58193H93.589V16.8402H98.6367V19.7634H89.8193Z" fill="#FBF8FC"/>
<defs>
<linearGradient id="paint0_linear_439_559" x1="12.6786" y1="1.75625" x2="-0.404117" y2="14.9698" gradientUnits="userSpaceOnUse">
<stop stop-color="#C5C5C7"/>
<stop offset="0.39185" stop-color="#97979A"/>
<stop offset="0.953874" stop-color="#4D4DFF"/>
</linearGradient>
</defs>
</svg>
