<svg width="24" height="24" viewBox="0 0 24 24" fill="none" xmlns="http://www.w3.org/2000/svg">
<path d="M22 9V7C22 6.46957 21.7893 5.96086 21.4142 5.58579C21.0391 5.21071 20.5304 5 20 5H4C3.46957 5 2.96086 5.21071 2.58579 5.58579C2.21071 5.96086 2 6.46957 2 7V17C2 17.5304 2.21071 18.0391 2.58579 18.4142C2.96086 18.7893 3.46957 19 4 19H12M22 9H6M22 9V11" stroke="#FBF8FC" stroke-width="1.5" stroke-linecap="round" stroke-linejoin="round"/>
<path d="M18.992 14.125L21.548 14.774C21.814 14.842 22.001 15.084 21.993 15.358C21.821 21.116 18.5 22 18.5 22C18.5 22 15.179 21.116 15.007 15.358C15.0042 15.2247 15.0467 15.0944 15.1275 14.9883C15.2084 14.8823 15.3227 14.8067 15.452 14.774L18.008 14.125C18.331 14.043 18.669 14.043 18.992 14.125Z" stroke="#FBF8FC" stroke-width="1.5" stroke-linecap="round" stroke-linejoin="round"/>
</svg>
