<svg width="210" height="65" viewBox="0 0 210 65" fill="none" xmlns="http://www.w3.org/2000/svg">
<path d="M45.8486 8.05703C45.8485 6.49472 45.2716 5.07359 44.2451 3.96857C43.2187 2.86378 41.8268 2.27484 40.375 2.27469H20.1621C18.7102 2.27504 17.3183 2.86448 16.292 3.9696L3.75488 17.2147C2.72835 18.3195 2.15169 19.7409 2.15137 21.3032V56.4984C2.15158 59.7549 4.59505 62.2805 7.61523 62.2807H40.377C41.8284 62.2799 43.2202 61.6906 44.2461 60.5858C45.2719 59.4809 45.8485 58.0602 45.8486 56.4984V8.05703ZM21.3379 30.1167C22.5829 27.4361 26.1359 27.4361 27.3809 30.1167L38.8809 54.417C38.9583 54.5839 38.9502 54.7727 38.8594 54.9316C38.7683 55.0907 38.6069 55.1828 38.4336 55.1828H37.1465C36.9572 55.1828 36.784 55.0728 36.6992 54.8903L25.457 31.1347C25.005 30.1615 23.7137 30.1615 23.2617 31.1347L12.0195 54.8903C11.9348 55.0728 11.7615 55.1828 11.5723 55.1828H10.2852C10.1119 55.1827 9.95142 55.0906 9.86035 54.9316C9.7693 54.7727 9.76037 54.5841 9.83789 54.417L21.3379 30.1167ZM30.5479 45.7347C30.5477 46.3754 30.0649 46.8715 29.4717 46.8715H18.7275C18.1344 46.8715 17.6515 46.3754 17.6514 45.7347C17.6514 45.0938 18.1343 44.5968 18.7275 44.5968H29.4717C30.0649 44.5968 30.5479 45.0938 30.5479 45.7347ZM48 56.4984C47.9999 58.6752 47.1967 60.6545 45.7676 62.1939C44.3383 63.7334 42.3993 64.5543 40.3779 64.5554H7.61523C3.40503 64.5552 0.00020869 61.0328 0 56.4984V21.3021C0.000454651 19.1247 0.804306 17.1448 2.23438 15.6056L14.7705 2.36047C16.2002 0.820975 18.1394 0.000585391 20.1611 0H40.375C42.397 0.00015151 44.3366 0.820009 45.7666 2.35944C47.1966 3.89892 47.9999 5.87945 48 8.05703V56.4984Z" fill="white"/>
<path d="M58.048 40.7777L65.728 23.9777H67.48L75.16 40.7777H73.288L66.232 25.0097H66.952L59.896 40.7777H58.048ZM61.072 36.2897L61.6 34.8497H71.368L71.896 36.2897H61.072Z" fill="white"/>
<path d="M77.5791 40.7777V28.1777H79.2111V31.6097L79.0431 31.0097C79.3951 30.0497 79.9871 29.3217 80.8191 28.8257C81.6511 28.3137 82.6831 28.0577 83.9151 28.0577V29.7137C83.8511 29.7137 83.7871 29.7137 83.7231 29.7137C83.6591 29.6977 83.5951 29.6897 83.5311 29.6897C82.2031 29.6897 81.1631 30.0977 80.4111 30.9137C79.6591 31.7137 79.2831 32.8577 79.2831 34.3457V40.7777H77.5791Z" fill="white"/>
<path d="M87.1673 45.5537C86.5753 45.5537 86.0073 45.4577 85.4633 45.2657C84.9353 45.0737 84.4793 44.7857 84.0953 44.4017L84.8873 43.1297C85.2073 43.4337 85.5513 43.6657 85.9193 43.8257C86.3033 44.0017 86.7273 44.0897 87.1913 44.0897C87.7513 44.0897 88.2313 43.9297 88.6313 43.6097C89.0473 43.3057 89.4393 42.7617 89.8073 41.9777L90.6233 40.1297L90.8153 39.8657L95.9993 28.1777H97.6793L91.3673 42.2897C91.0153 43.1057 90.6233 43.7537 90.1913 44.2337C89.7753 44.7137 89.3193 45.0497 88.8233 45.2417C88.3273 45.4497 87.7753 45.5537 87.1673 45.5537ZM90.5273 41.1377L84.7193 28.1777H86.4953L91.6313 39.7457L90.5273 41.1377Z" fill="white"/>
<path d="M100.079 40.7777V28.1777H101.711V31.5857L101.447 30.9857C101.831 30.0737 102.447 29.3617 103.295 28.8497C104.159 28.3217 105.175 28.0577 106.343 28.0577C107.575 28.0577 108.623 28.3697 109.487 28.9937C110.351 29.6017 110.911 30.5217 111.167 31.7537L110.495 31.4897C110.863 30.4657 111.511 29.6417 112.439 29.0177C113.383 28.3777 114.511 28.0577 115.823 28.0577C116.847 28.0577 117.735 28.2577 118.487 28.6577C119.255 29.0417 119.847 29.6337 120.263 30.4337C120.695 31.2337 120.911 32.2417 120.911 33.4577V40.7777H119.207V33.6257C119.207 32.2977 118.887 31.2977 118.247 30.6257C117.623 29.9377 116.735 29.5937 115.583 29.5937C114.719 29.5937 113.967 29.7777 113.327 30.1457C112.703 30.4977 112.215 31.0177 111.863 31.7057C111.527 32.3777 111.359 33.1937 111.359 34.1537V40.7777H109.655V33.6257C109.655 32.2977 109.335 31.2977 108.695 30.6257C108.055 29.9377 107.159 29.5937 106.007 29.5937C105.159 29.5937 104.415 29.7777 103.775 30.1457C103.135 30.4977 102.639 31.0177 102.287 31.7057C101.951 32.3777 101.783 33.1937 101.783 34.1537V40.7777H100.079Z" fill="white"/>
<path d="M133.428 40.7777V37.9937L133.356 37.5377V32.8817C133.356 31.8097 133.052 30.9857 132.444 30.4097C131.852 29.8337 130.964 29.5457 129.78 29.5457C128.964 29.5457 128.188 29.6817 127.452 29.9537C126.716 30.2257 126.092 30.5857 125.58 31.0337L124.812 29.7617C125.452 29.2177 126.22 28.8017 127.116 28.5137C128.012 28.2097 128.956 28.0577 129.948 28.0577C131.58 28.0577 132.836 28.4657 133.716 29.2817C134.612 30.0817 135.06 31.3057 135.06 32.9537V40.7777H133.428ZM129.084 40.8977C128.14 40.8977 127.316 40.7457 126.612 40.4417C125.924 40.1217 125.396 39.6897 125.028 39.1457C124.66 38.5857 124.476 37.9457 124.476 37.2257C124.476 36.5697 124.628 35.9777 124.932 35.4497C125.252 34.9057 125.764 34.4737 126.468 34.1537C127.188 33.8177 128.148 33.6497 129.348 33.6497H133.692V34.9217H129.396C128.18 34.9217 127.332 35.1377 126.852 35.5697C126.388 36.0017 126.156 36.5377 126.156 37.1777C126.156 37.8977 126.436 38.4737 126.996 38.9057C127.556 39.3377 128.34 39.5537 129.348 39.5537C130.308 39.5537 131.132 39.3377 131.82 38.9057C132.524 38.4577 133.036 37.8177 133.356 36.9857L133.74 38.1617C133.42 38.9937 132.86 39.6577 132.06 40.1537C131.276 40.6497 130.284 40.8977 129.084 40.8977Z" fill="white"/>
<path d="M139.689 40.7777V28.1777H141.32V31.6337L141.057 30.9857C141.457 30.0737 142.097 29.3617 142.977 28.8497C143.857 28.3217 144.904 28.0577 146.12 28.0577C147.144 28.0577 148.041 28.2577 148.809 28.6577C149.593 29.0417 150.201 29.6337 150.633 30.4337C151.081 31.2337 151.305 32.2417 151.305 33.4577V40.7777H149.6V33.6257C149.6 32.2977 149.264 31.2977 148.592 30.6257C147.936 29.9377 147.009 29.5937 145.809 29.5937C144.913 29.5937 144.128 29.7777 143.456 30.1457C142.8 30.4977 142.289 31.0177 141.921 31.7057C141.569 32.3777 141.393 33.1937 141.393 34.1537V40.7777H139.689Z" fill="white"/>
<path d="M162.549 40.7777V23.9777H168.837C170.965 23.9777 172.637 24.4897 173.853 25.5137C175.085 26.5217 175.701 27.9297 175.701 29.7377C175.701 30.9217 175.421 31.9457 174.861 32.8097C174.317 33.6577 173.532 34.3137 172.508 34.7777C171.484 35.2257 170.261 35.4497 168.837 35.4497H163.533L164.324 34.6337V40.7777H162.549ZM174.021 40.7777L169.701 34.6817H171.62L175.965 40.7777H174.021ZM164.324 34.7777L163.533 33.9377H168.788C170.468 33.9377 171.741 33.5697 172.605 32.8337C173.485 32.0977 173.924 31.0657 173.924 29.7377C173.924 28.3937 173.485 27.3537 172.605 26.6177C171.741 25.8817 170.468 25.5137 168.788 25.5137H163.533L164.324 24.6737V34.7777Z" fill="white"/>
<path d="M184.884 40.8977C183.572 40.8977 182.42 40.6257 181.428 40.0817C180.436 39.5217 179.66 38.7617 179.1 37.8017C178.54 36.8257 178.26 35.7137 178.26 34.4657C178.26 33.2177 178.524 32.1137 179.052 31.1537C179.596 30.1937 180.332 29.4417 181.26 28.8977C182.204 28.3377 183.26 28.0577 184.428 28.0577C185.612 28.0577 186.66 28.3297 187.572 28.8737C188.5 29.4017 189.228 30.1537 189.756 31.1297C190.284 32.0897 190.548 33.2017 190.548 34.4657C190.548 34.5457 190.54 34.6337 190.524 34.7297C190.524 34.8097 190.524 34.8977 190.524 34.9937H179.556V33.7217H189.612L188.94 34.2257C188.94 33.3137 188.74 32.5057 188.34 31.8017C187.956 31.0817 187.428 30.5217 186.756 30.1217C186.084 29.7217 185.308 29.5217 184.428 29.5217C183.564 29.5217 182.788 29.7217 182.1 30.1217C181.412 30.5217 180.876 31.0817 180.492 31.8017C180.108 32.5217 179.916 33.3457 179.916 34.2737V34.5377C179.916 35.4977 180.124 36.3457 180.54 37.0817C180.972 37.8017 181.564 38.3697 182.316 38.7857C183.084 39.1857 183.956 39.3857 184.932 39.3857C185.7 39.3857 186.412 39.2497 187.068 38.9777C187.74 38.7057 188.316 38.2897 188.796 37.7297L189.756 38.8337C189.196 39.5057 188.492 40.0177 187.644 40.3697C186.812 40.7217 185.892 40.8977 184.884 40.8977Z" fill="white"/>
<path d="M194.017 40.7777V28.1777H195.721V40.7777H194.017ZM194.881 25.3937C194.529 25.3937 194.233 25.2737 193.993 25.0337C193.753 24.7937 193.633 24.5057 193.633 24.1697C193.633 23.8337 193.753 23.5537 193.993 23.3297C194.233 23.0897 194.529 22.9697 194.881 22.9697C195.233 22.9697 195.529 23.0817 195.769 23.3057C196.009 23.5297 196.129 23.8097 196.129 24.1457C196.129 24.4977 196.009 24.7937 195.769 25.0337C195.545 25.2737 195.249 25.3937 194.881 25.3937Z" fill="white"/>
<path d="M203.846 40.8977C202.806 40.8977 201.822 40.7537 200.894 40.4657C199.966 40.1617 199.238 39.7857 198.71 39.3377L199.478 37.9937C199.99 38.3777 200.646 38.7137 201.446 39.0017C202.246 39.2737 203.086 39.4097 203.966 39.4097C205.166 39.4097 206.03 39.2257 206.558 38.8577C207.086 38.4737 207.35 37.9697 207.35 37.3457C207.35 36.8817 207.198 36.5217 206.894 36.2657C206.606 35.9937 206.222 35.7937 205.742 35.6657C205.262 35.5217 204.726 35.4017 204.134 35.3057C203.542 35.2097 202.95 35.0977 202.358 34.9697C201.782 34.8417 201.254 34.6577 200.774 34.4177C200.294 34.1617 199.902 33.8177 199.598 33.3857C199.31 32.9537 199.166 32.3777 199.166 31.6577C199.166 30.9697 199.358 30.3537 199.742 29.8097C200.126 29.2657 200.686 28.8417 201.422 28.5377C202.174 28.2177 203.086 28.0577 204.158 28.0577C204.974 28.0577 205.79 28.1697 206.606 28.3937C207.422 28.6017 208.094 28.8817 208.622 29.2337L207.878 30.6017C207.318 30.2177 206.718 29.9457 206.078 29.7857C205.438 29.6097 204.798 29.5217 204.158 29.5217C203.022 29.5217 202.182 29.7217 201.638 30.1217C201.11 30.5057 200.846 31.0017 200.846 31.6097C200.846 32.0897 200.99 32.4657 201.278 32.7377C201.582 33.0097 201.974 33.2257 202.454 33.3857C202.95 33.5297 203.486 33.6497 204.062 33.7457C204.654 33.8417 205.238 33.9617 205.814 34.1057C206.406 34.2337 206.942 34.4177 207.422 34.6577C207.918 34.8817 208.31 35.2097 208.598 35.6417C208.902 36.0577 209.054 36.6097 209.054 37.2977C209.054 38.0337 208.846 38.6737 208.43 39.2177C208.03 39.7457 207.438 40.1617 206.654 40.4657C205.886 40.7537 204.95 40.8977 203.846 40.8977Z" fill="white"/>
</svg>
