<svg width="48" height="61" viewBox="0 0 48 61" fill="none" xmlns="http://www.w3.org/2000/svg">
<path d="M40.375 0C42.397 0.000139495 44.3366 0.801902 45.7666 2.22949C47.1965 3.65713 47.9999 5.59391 48 7.61328V53.3867C47.9999 55.4053 47.1967 57.341 45.7676 58.7686C44.3383 60.1962 42.3993 60.999 40.3779 61H7.61523C3.40503 60.9998 0.000202513 57.5917 0 53.3867V20.1289C0.000454652 18.1097 0.804305 16.1735 2.23438 14.7461L14.7705 2.23047C16.2002 0.802816 18.1394 0.000542861 20.1611 0H40.375ZM20.1621 2.14941C18.7102 2.14973 17.3183 2.72614 16.292 3.75098L3.75488 16.2666C2.72835 17.2912 2.15169 18.6811 2.15137 20.1299V53.3867C2.15157 56.4066 4.59504 58.8504 7.61523 58.8506H40.377C41.8284 58.8498 43.2202 58.2736 44.2461 57.249C45.2719 56.2244 45.8485 54.8351 45.8486 53.3867V7.61328C45.8485 6.16448 45.2716 4.77474 44.2451 3.75C43.2187 2.72547 41.8268 2.14955 40.375 2.14941H20.1621ZM21.3379 28.458C22.5829 25.9722 26.1359 25.9722 27.3809 28.458L38.8809 51.4199C38.9584 51.5748 38.9502 51.7589 38.8594 51.9062C38.7683 52.0537 38.6069 52.1435 38.4336 52.1436H37.1465C36.9572 52.1436 36.784 52.0364 36.6992 51.8672L25.457 29.4199C25.005 28.5174 23.7137 28.5174 23.2617 29.4199L12.0195 51.8672C11.9348 52.0364 11.7615 52.1436 11.5723 52.1436H10.2852C10.1119 52.1435 9.95142 52.0537 9.86035 51.9062C9.7693 51.7588 9.76037 51.5749 9.83789 51.4199L21.3379 28.458ZM29.4717 42.1406C30.0649 42.1406 30.5479 42.6215 30.5479 43.2158C30.5477 43.81 30.0649 44.29 29.4717 44.29H18.7275C18.1344 44.29 17.6515 43.81 17.6514 43.2158C17.6514 42.6215 18.1343 42.1406 18.7275 42.1406H29.4717Z" fill="#4D4DFF"/>
</svg>
