<svg width="205" height="61" viewBox="0 0 205 61" fill="none" xmlns="http://www.w3.org/2000/svg">
<path d="M46.3487 7.61364C46.3487 6.03181 45.7191 4.51469 44.5988 3.39617C43.4784 2.27773 41.9589 1.64945 40.3746 1.64943H20.1619C18.5776 1.64978 17.0583 2.2784 15.9382 3.39699L3.40179 15.9127C2.28135 17.0309 1.65168 18.5476 1.65133 20.1293V53.3864C1.65135 56.6827 4.31898 59.3506 7.61562 59.3506H40.3776C41.9614 59.3498 43.4801 58.7211 44.5998 57.6027C45.7196 56.4843 46.3487 54.9677 46.3487 53.3864V7.61364ZM47.5 53.3864C47.5 55.2724 46.7497 57.0813 45.4142 58.4152C44.0787 59.7492 42.2672 60.499 40.3781 60.5H7.61562C3.68131 60.5 0.500016 57.3156 0.5 53.3864V20.129C0.500423 18.2426 1.2514 16.4336 2.58768 15.0999L15.1241 2.58422C16.46 1.25016 18.2721 0.500422 20.1616 0.5H40.3746C42.2643 0.500025 44.0766 1.24964 45.4129 2.58367C46.7491 3.91772 47.5 5.72702 47.5 7.61364V53.3864Z" fill="#FBF8FC"/>
<path d="M37.1463 51.6438L25.9041 29.1958C25.2677 27.9252 23.4511 27.9252 22.8148 29.1958L11.5725 51.6438H10.2853L21.785 28.6818C22.8456 26.5641 25.8733 26.5641 26.9339 28.6818L38.4336 51.6438H37.1463Z" fill="#FBF8FC"/>
<path d="M29.4719 42.6409C29.7898 42.6409 30.0476 42.8982 30.0476 43.2156C30.0476 43.533 29.7898 43.7903 29.4719 43.7903H18.7274C18.4095 43.7903 18.1517 43.533 18.1517 43.2156C18.1517 42.8982 18.4095 42.6409 18.7274 42.6409H29.4719Z" fill="#FBF8FC"/>
<path d="M47 7.61328C46.9999 5.8597 46.3019 4.17779 45.0596 2.9375C43.8172 1.69724 42.1322 1.00014 40.375 1H20.1621L19.833 1.00781C18.1955 1.08931 16.642 1.77564 15.4775 2.93848L2.94141 15.4541C1.69929 16.6941 1.00045 18.3756 1 20.1289V53.3867C1.0002 57.0395 3.95742 59.9998 7.61523 60H40.3779L40.7061 59.9922C42.3433 59.9104 43.8964 59.2242 45.0605 58.0615C46.3022 56.8213 46.9999 55.1398 47 53.3867V7.61328ZM45.8486 7.61328C45.8485 6.16448 45.2716 4.77474 44.2451 3.75C43.2187 2.72547 41.8268 2.14955 40.375 2.14941H20.1621C18.7102 2.14973 17.3183 2.72614 16.292 3.75098L3.75488 16.2666C2.72835 17.2912 2.15169 18.6811 2.15137 20.1299V53.3867C2.15157 56.4066 4.59504 58.8504 7.61523 58.8506H40.377C41.8284 58.8498 43.2202 58.2736 44.2461 57.249C45.2719 56.2244 45.8485 54.8351 45.8486 53.3867V7.61328ZM21.3379 28.458C22.5829 25.9722 26.1359 25.9722 27.3809 28.458L38.8809 51.4199C38.9584 51.5748 38.9502 51.7589 38.8594 51.9062C38.7683 52.0537 38.6069 52.1435 38.4336 52.1436H37.1465C36.9572 52.1436 36.784 52.0364 36.6992 51.8672L25.457 29.4199C25.005 28.5174 23.7137 28.5174 23.2617 29.4199L12.0195 51.8672C11.9348 52.0364 11.7615 52.1436 11.5723 52.1436H10.2852C10.1119 52.1435 9.95142 52.0537 9.86035 51.9062C9.7693 51.7588 9.76037 51.5749 9.83789 51.4199L21.3379 28.458ZM26.4873 28.9053C25.6111 27.156 23.1089 27.1562 22.2324 28.9053L11.0947 51.1436H11.2637L22.3682 28.9717C23.1891 27.3333 25.5309 27.3331 26.3516 28.9717L37.4551 51.1436H37.624L26.4873 28.9053ZM29.5479 43.2158C29.5479 43.1754 29.5142 43.1406 29.4717 43.1406H18.7275C18.685 43.1406 18.6514 43.1754 18.6514 43.2158C18.6515 43.2562 18.6851 43.29 18.7275 43.29H29.4717C29.5141 43.29 29.5477 43.2562 29.5479 43.2158ZM30.5479 43.2158C30.5477 43.81 30.0649 44.29 29.4717 44.29H18.7275C18.1344 44.29 17.6515 43.81 17.6514 43.2158C17.6514 42.6215 18.1343 42.1406 18.7275 42.1406H29.4717C30.0649 42.1406 30.5479 42.6215 30.5479 43.2158ZM46.8486 53.3867C46.8485 55.1007 46.1665 56.744 44.9531 57.9561C43.7397 59.1681 42.094 59.8497 40.3779 59.8506H7.61523C4.04274 59.8504 1.15157 56.9589 1.15137 53.3867V20.1289C1.15182 18.4144 1.83459 16.7705 3.04883 15.5586L15.585 3.04297C16.7989 1.83079 18.4455 1.14979 20.1621 1.14941H40.375C42.0915 1.14955 43.7381 1.83004 44.9521 3.04199C46.1663 4.25412 46.8485 5.8987 46.8486 7.61328V53.3867ZM48 53.3867C47.9999 55.4053 47.1967 57.341 45.7676 58.7686C44.3383 60.1962 42.3993 60.999 40.3779 61H7.61523C3.40503 60.9998 0.000202513 57.5917 0 53.3867V20.1289C0.000454652 18.1097 0.804305 16.1735 2.23438 14.7461L14.7705 2.23047C16.2002 0.802816 18.1394 0.000542861 20.1611 0H40.375C42.397 0.000139495 44.3366 0.801902 45.7666 2.22949C47.1965 3.65713 47.9999 5.59391 48 7.61328V53.3867Z" fill="#FBF8FC"/>
<path d="M58 36.8475L65.4763 20.4819H67.1818L74.658 36.8475H72.8357L65.9669 21.4872H66.6678L59.799 36.8475H58ZM60.9438 32.4756L61.4578 31.0728H70.9666L71.4806 32.4756H60.9438Z" fill="#FBF8FC"/>
<path d="M77.013 36.8475V24.5733H78.6017V27.9166L78.4382 27.3321C78.7808 26.3969 79.3571 25.6877 80.167 25.2046C80.977 24.7058 81.9816 24.4564 83.1809 24.4564V26.0696C83.1186 26.0696 83.0563 26.0696 82.994 26.0696C82.9317 26.054 82.8694 26.0462 82.8071 26.0462C81.5143 26.0462 80.5019 26.4437 79.7699 27.2386C79.0378 28.0179 78.6718 29.1323 78.6718 30.5818V36.8475H77.013Z" fill="#FBF8FC"/>
<path d="M86.3468 41.5C85.7705 41.5 85.2176 41.4065 84.688 41.2194C84.174 41.0324 83.7301 40.7519 83.3563 40.3778L84.1273 39.1387C84.4388 39.4348 84.7737 39.6608 85.1319 39.8167C85.5057 39.9881 85.9185 40.0739 86.3702 40.0739C86.9153 40.0739 87.3826 39.918 87.772 39.6063C88.177 39.3101 88.5586 38.7802 88.9168 38.0165L89.7111 36.2163L89.8981 35.9591L94.9445 24.5733H96.58L90.4354 38.3204C90.0927 39.1153 89.7111 39.7465 89.2906 40.2141C88.8856 40.6817 88.4417 41.009 87.9589 41.1961C87.4761 41.3987 86.9387 41.5 86.3468 41.5ZM89.6177 37.1982L83.9638 24.5733H85.6927L90.6924 35.8422L89.6177 37.1982Z" fill="#FBF8FC"/>
<path d="M98.9161 36.8475V24.5733H100.505V27.8932L100.248 27.3087C100.622 26.4203 101.221 25.7267 102.047 25.2279C102.888 24.7136 103.877 24.4564 105.014 24.4564C106.213 24.4564 107.233 24.7604 108.075 25.3682C108.916 25.9605 109.461 26.8567 109.71 28.0569L109.056 27.7997C109.414 26.8022 110.045 25.9995 110.948 25.3916C111.867 24.7682 112.965 24.4564 114.242 24.4564C115.239 24.4564 116.104 24.6513 116.836 25.0409C117.583 25.415 118.16 25.9917 118.565 26.771C118.985 27.5503 119.195 28.5322 119.195 29.7168V36.8475H117.537V29.8804C117.537 28.5868 117.225 27.6126 116.602 26.958C115.995 26.2878 115.13 25.9527 114.009 25.9527C113.168 25.9527 112.436 26.132 111.813 26.4904C111.205 26.8333 110.73 27.3399 110.387 28.0101C110.06 28.6647 109.897 29.4596 109.897 30.3948V36.8475H108.238V29.8804C108.238 28.5868 107.927 27.6126 107.304 26.958C106.681 26.2878 105.808 25.9527 104.687 25.9527C103.861 25.9527 103.137 26.132 102.514 26.4904C101.891 26.8333 101.408 27.3399 101.066 28.0101C100.738 28.6647 100.575 29.4596 100.575 30.3948V36.8475H98.9161Z" fill="#FBF8FC"/>
<path d="M131.381 36.8475V34.1355L131.31 33.6913V29.1557C131.31 28.1114 131.015 27.3087 130.423 26.7476C129.846 26.1865 128.982 25.906 127.829 25.906C127.035 25.906 126.28 26.0384 125.563 26.3034C124.847 26.5684 124.239 26.9191 123.741 27.3555L122.993 26.1164C123.616 25.5864 124.364 25.1812 125.236 24.9006C126.108 24.6045 127.027 24.4564 127.993 24.4564C129.582 24.4564 130.804 24.8539 131.661 25.6488C132.533 26.4281 132.969 27.6204 132.969 29.2258V36.8475H131.381ZM127.152 36.9644C126.233 36.9644 125.431 36.8163 124.745 36.5202C124.076 36.2085 123.562 35.7876 123.203 35.2577C122.845 34.7122 122.666 34.0887 122.666 33.3874C122.666 32.7483 122.814 32.1716 123.11 31.6573C123.421 31.1273 123.92 30.7065 124.605 30.3948C125.306 30.0675 126.241 29.9038 127.409 29.9038H131.638V31.1429H127.455C126.272 31.1429 125.446 31.3533 124.979 31.7742C124.527 32.195 124.301 32.7171 124.301 33.3406C124.301 34.042 124.574 34.6031 125.119 35.0239C125.664 35.4447 126.428 35.6552 127.409 35.6552C128.343 35.6552 129.145 35.4447 129.815 35.0239C130.501 34.5875 130.999 33.964 131.31 33.1536L131.684 34.2992C131.373 35.1096 130.828 35.7565 130.049 36.2396C129.286 36.7228 128.32 36.9644 127.152 36.9644Z" fill="#FBF8FC"/>
<path d="M137.475 36.8475V24.5733H139.063V27.94L138.806 27.3087C139.196 26.4203 139.819 25.7267 140.675 25.2279C141.532 24.7136 142.552 24.4564 143.736 24.4564C144.733 24.4564 145.605 24.6513 146.353 25.0409C147.116 25.415 147.708 25.9917 148.128 26.771C148.565 27.5503 148.783 28.5322 148.783 29.7168V36.8475H147.124V29.8804C147.124 28.5868 146.797 27.6126 146.143 26.958C145.504 26.2878 144.601 25.9527 143.432 25.9527C142.56 25.9527 141.797 26.132 141.143 26.4904C140.504 26.8333 140.006 27.3399 139.647 28.0101C139.305 28.6647 139.134 29.4596 139.134 30.3948V36.8475H137.475Z" fill="#FBF8FC"/>
<path d="M159.728 36.8475V20.4819H165.849C167.921 20.4819 169.549 20.9807 170.732 21.9782C171.932 22.9601 172.531 24.3317 172.531 26.093C172.531 27.2464 172.259 28.2439 171.714 29.0855C171.184 29.9116 170.421 30.5507 169.424 31.0027C168.427 31.4391 167.236 31.6573 165.849 31.6573H160.686L161.457 30.8624V36.8475H159.728ZM170.896 36.8475L166.691 30.9091H168.56L172.788 36.8475H170.896ZM161.457 31.0027L160.686 30.1844H165.803C167.438 30.1844 168.676 29.8259 169.518 29.1089C170.374 28.392 170.802 27.3866 170.802 26.093C170.802 24.7837 170.374 23.7706 169.518 23.0537C168.676 22.3367 167.438 21.9782 165.803 21.9782H160.686L161.457 21.1599V31.0027Z" fill="#FBF8FC"/>
<path d="M181.471 36.9644C180.194 36.9644 179.073 36.6994 178.107 36.1695C177.141 35.624 176.386 34.8836 175.841 33.9485C175.296 32.9977 175.023 31.9145 175.023 30.6987C175.023 29.483 175.28 28.4075 175.794 27.4724C176.324 26.5372 177.04 25.8046 177.944 25.2747C178.863 24.7292 179.891 24.4564 181.028 24.4564C182.18 24.4564 183.2 24.7214 184.088 25.2513C184.992 25.7657 185.7 26.4982 186.214 27.449C186.728 28.3842 186.985 29.4674 186.985 30.6987C186.985 30.7767 186.977 30.8624 186.962 30.9559C186.962 31.0338 186.962 31.1196 186.962 31.2131H176.285V29.974H186.074L185.42 30.4649C185.42 29.5765 185.225 28.7894 184.836 28.1036C184.462 27.4022 183.948 26.8567 183.294 26.4671C182.64 26.0774 181.884 25.8826 181.028 25.8826C180.187 25.8826 179.431 26.0774 178.761 26.4671C178.092 26.8567 177.57 27.4022 177.196 28.1036C176.822 28.805 176.635 29.6077 176.635 30.5117V30.7689C176.635 31.704 176.838 32.5301 177.243 33.2471C177.663 33.9485 178.24 34.5018 178.972 34.907C179.719 35.2967 180.568 35.4915 181.518 35.4915C182.266 35.4915 182.959 35.359 183.598 35.094C184.252 34.8291 184.812 34.4238 185.28 33.8783L186.214 34.9538C185.669 35.6084 184.984 36.1072 184.158 36.4501C183.348 36.793 182.453 36.9644 181.471 36.9644Z" fill="#FBF8FC"/>
<path d="M190.362 36.8475V24.5733H192.02V36.8475H190.362ZM191.203 21.8613C190.86 21.8613 190.572 21.7444 190.338 21.5106C190.105 21.2768 189.988 20.9963 189.988 20.669C189.988 20.3417 190.105 20.0689 190.338 19.8507C190.572 19.6169 190.86 19.5 191.203 19.5C191.545 19.5 191.833 19.6091 192.067 19.8273C192.301 20.0455 192.418 20.3183 192.418 20.6456C192.418 20.9885 192.301 21.2768 192.067 21.5106C191.849 21.7444 191.561 21.8613 191.203 21.8613Z" fill="#FBF8FC"/>
<path d="M199.93 36.9644C198.918 36.9644 197.96 36.8241 197.056 36.5436C196.153 36.2474 195.444 35.8812 194.93 35.4447L195.678 34.1355C196.176 34.5096 196.815 34.8369 197.594 35.1174C198.373 35.3824 199.19 35.5149 200.047 35.5149C201.215 35.5149 202.056 35.3356 202.57 34.9772C203.084 34.6031 203.341 34.1121 203.341 33.5043C203.341 33.0523 203.193 32.7016 202.897 32.4522C202.617 32.1872 202.243 31.9924 201.776 31.8677C201.309 31.7274 200.787 31.6105 200.211 31.517C199.634 31.4235 199.058 31.3144 198.482 31.1897C197.921 31.065 197.407 30.8858 196.94 30.652C196.472 30.4026 196.091 30.0675 195.795 29.6467C195.514 29.2258 195.374 28.6647 195.374 27.9633C195.374 27.2931 195.561 26.6931 195.935 26.1631C196.309 25.6332 196.854 25.2202 197.57 24.924C198.303 24.6123 199.19 24.4564 200.234 24.4564C201.028 24.4564 201.823 24.5655 202.617 24.7837C203.411 24.9864 204.065 25.2591 204.579 25.602L203.855 26.9346C203.31 26.5606 202.726 26.2956 202.103 26.1397C201.48 25.9683 200.857 25.8826 200.234 25.8826C199.128 25.8826 198.31 26.0774 197.781 26.4671C197.267 26.8411 197.01 27.3243 197.01 27.9166C197.01 28.3842 197.15 28.7504 197.43 29.0154C197.726 29.2804 198.108 29.4908 198.575 29.6467C199.058 29.7869 199.58 29.9038 200.14 29.9973C200.717 30.0909 201.285 30.2078 201.846 30.348C202.422 30.4727 202.944 30.652 203.411 30.8858C203.894 31.104 204.276 31.4235 204.556 31.8443C204.852 32.2496 205 32.7873 205 33.4575C205 34.1745 204.798 34.7979 204.393 35.3278C204.003 35.8422 203.427 36.2474 202.664 36.5436C201.916 36.8241 201.005 36.9644 199.93 36.9644Z" fill="#FBF8FC"/>
</svg>
