<svg width="56" height="31" viewBox="0 0 56 31" fill="none" xmlns="http://www.w3.org/2000/svg">
<path d="M23.6263 26.9596V3.6263C23.6263 2.74225 23.2751 1.8944 22.65 1.26928C22.0248 0.644158 21.177 0.292969 20.2929 0.292969H10.0063C9.12229 0.293158 8.27458 0.644471 7.6496 1.26964L1.2696 7.64964C0.64444 8.27461 0.293127 9.12232 0.292938 10.0063V26.9596C0.292938 28.8013 1.78127 30.293 3.62127 30.293H20.2946C21.1784 30.2925 22.0258 29.9411 22.6506 29.3161C23.2753 28.691 23.6263 27.8434 23.6263 26.9596Z" stroke="#FBF8FC" stroke-width="0.585872" stroke-linecap="round" stroke-linejoin="round"/>
<path d="M3.22183 15.8096V13.0199H3.46493L4.7402 15.1958H4.61268L5.876 13.0199H6.1191V15.8096H5.83614V13.4623H5.90389L4.7402 15.4549H4.60072L3.42906 13.4623H3.50478V15.8096H3.22183ZM7.02804 15.8096V13.0199H8.94096V13.275H7.32295V15.5545H9.00074V15.8096H7.02804ZM7.29107 14.5184V14.2673H8.76561V14.5184H7.29107ZM7.72546 12.7927L8.27144 12.2986H8.65003L8.00443 12.7927H7.72546ZM10.2359 15.8096V13.275H9.25557V13.0199H11.5112V13.275H10.5308V15.8096H10.2359ZM13.1629 15.8335C12.953 15.8335 12.7577 15.7989 12.5771 15.7299C12.3991 15.6581 12.2437 15.5585 12.1108 15.431C11.9806 15.3008 11.8783 15.1507 11.8039 14.9806C11.7322 14.8079 11.6963 14.6193 11.6963 14.4147C11.6963 14.2102 11.7322 14.0229 11.8039 13.8528C11.8783 13.6801 11.9806 13.53 12.1108 13.4025C12.2437 13.2723 12.3991 13.1727 12.5771 13.1036C12.7551 13.0319 12.9504 12.996 13.1629 12.996C13.3728 12.996 13.5668 13.0319 13.7448 13.1036C13.9228 13.1727 14.0769 13.271 14.207 13.3985C14.3399 13.526 14.4422 13.6761 14.5139 13.8488C14.5883 14.0215 14.6255 14.2102 14.6255 14.4147C14.6255 14.6193 14.5883 14.8079 14.5139 14.9806C14.4422 15.1533 14.3399 15.3034 14.207 15.431C14.0769 15.5585 13.9228 15.6581 13.7448 15.7299C13.5668 15.7989 13.3728 15.8335 13.1629 15.8335ZM13.1629 15.5705C13.3303 15.5705 13.4844 15.5426 13.6252 15.4868C13.7687 15.4283 13.8922 15.3473 13.9958 15.2437C14.1021 15.1374 14.1845 15.0152 14.2429 14.877C14.3014 14.7362 14.3306 14.5821 14.3306 14.4147C14.3306 14.2474 14.3014 14.0946 14.2429 13.9564C14.1845 13.8156 14.1021 13.6934 13.9958 13.5898C13.8922 13.4835 13.7687 13.4025 13.6252 13.3467C13.4844 13.2882 13.3303 13.259 13.1629 13.259C12.9955 13.259 12.8401 13.2882 12.6966 13.3467C12.5532 13.4025 12.4283 13.4835 12.322 13.5898C12.2184 13.6934 12.1361 13.8156 12.0749 13.9564C12.0165 14.0946 11.9873 14.2474 11.9873 14.4147C11.9873 14.5795 12.0165 14.7322 12.0749 14.873C12.1361 15.0139 12.2184 15.1374 12.322 15.2437C12.4283 15.3473 12.5532 15.4283 12.6966 15.4868C12.8401 15.5426 12.9955 15.5705 13.1629 15.5705ZM15.2865 15.8096V13.0199H16.4223C16.7199 13.0199 16.9802 13.0797 17.2034 13.1992C17.4292 13.3161 17.6046 13.4795 17.7295 13.6894C17.8543 13.8993 17.9168 14.1411 17.9168 14.4147C17.9168 14.6884 17.8543 14.9302 17.7295 15.14C17.6046 15.3499 17.4292 15.5147 17.2034 15.6342C16.9802 15.7511 16.7199 15.8096 16.4223 15.8096H15.2865ZM15.5814 15.5545H16.4064C16.6535 15.5545 16.8673 15.5067 17.048 15.411C17.2313 15.3127 17.3735 15.1786 17.4744 15.0085C17.5754 14.8358 17.6259 14.6379 17.6259 14.4147C17.6259 14.1889 17.5754 13.991 17.4744 13.8209C17.3735 13.6509 17.2313 13.5181 17.048 13.4224C16.8673 13.3241 16.6535 13.275 16.4064 13.275H15.5814V15.5545ZM19.7985 15.8335C19.5886 15.8335 19.3933 15.7989 19.2127 15.7299C19.0347 15.6581 18.8792 15.5585 18.7464 15.431C18.6162 15.3008 18.5139 15.1507 18.4395 14.9806C18.3678 14.8079 18.3319 14.6193 18.3319 14.4147C18.3319 14.2102 18.3678 14.0229 18.4395 13.8528C18.5139 13.6801 18.6162 13.53 18.7464 13.4025C18.8792 13.2723 19.0347 13.1727 19.2127 13.1036C19.3907 13.0319 19.5859 12.996 19.7985 12.996C20.0084 12.996 20.2023 13.0319 20.3803 13.1036C20.5583 13.1727 20.7124 13.271 20.8426 13.3985C20.9755 13.526 21.0778 13.6761 21.1495 13.8488C21.2239 14.0215 21.2611 14.2102 21.2611 14.4147C21.2611 14.6193 21.2239 14.8079 21.1495 14.9806C21.0778 15.1533 20.9755 15.3034 20.8426 15.431C20.7124 15.5585 20.5583 15.6581 20.3803 15.7299C20.2023 15.7989 20.0084 15.8335 19.7985 15.8335ZM19.7985 15.5705C19.9659 15.5705 20.12 15.5426 20.2608 15.4868C20.4043 15.4283 20.5278 15.3473 20.6314 15.2437C20.7377 15.1374 20.82 15.0152 20.8785 14.877C20.9369 14.7362 20.9662 14.5821 20.9662 14.4147C20.9662 14.2474 20.9369 14.0946 20.8785 13.9564C20.82 13.8156 20.7377 13.6934 20.6314 13.5898C20.5278 13.4835 20.4043 13.4025 20.2608 13.3467C20.12 13.2882 19.9659 13.259 19.7985 13.259C19.6311 13.259 19.4757 13.2882 19.3322 13.3467C19.1888 13.4025 19.0639 13.4835 18.9576 13.5898C18.854 13.6934 18.7716 13.8156 18.7105 13.9564C18.6521 14.0946 18.6228 14.2474 18.6228 14.4147C18.6228 14.5795 18.6521 14.7322 18.7105 14.873C18.7716 15.0139 18.854 15.1374 18.9576 15.2437C19.0639 15.3473 19.1888 15.4283 19.3322 15.4868C19.4757 15.5426 19.6311 15.5705 19.7985 15.5705Z" fill="#FBF8FC"/>
<path d="M2.61765 25.929V18.8096H3.93983V24.8103H7.6623V25.929H2.61765Z" fill="#FBF8FC"/>
<path d="M8.70615 25.929V18.8096H11.6353C12.2659 18.8096 12.8049 18.9113 13.2524 19.1147C13.7067 19.3181 14.0559 19.6097 14.3 19.9894C14.5441 20.3691 14.6662 20.82 14.6662 21.3421C14.6662 21.8642 14.5441 22.3151 14.3 22.6948C14.0559 23.0745 13.7067 23.366 13.2524 23.5694C12.8049 23.7729 12.2659 23.8746 11.6353 23.8746H9.43844L10.0283 23.2542V25.929H8.70615ZM10.0283 23.3965L9.43844 22.7558H11.5743C12.1574 22.7558 12.5947 22.6337 12.8863 22.3896C13.1846 22.1388 13.3338 21.7896 13.3338 21.3421C13.3338 20.8878 13.1846 20.5386 12.8863 20.2945C12.5947 20.0504 12.1574 19.9283 11.5743 19.9283H9.43844L10.0283 19.2774V23.3965Z" fill="#FBF8FC"/>
<path d="M17.207 21.7692H20.7464V22.8575H17.207V21.7692ZM17.3087 24.8204H21.3261V25.929H15.9865V18.8096H21.1837V19.9182H17.3087V24.8204Z" fill="#FBF8FC"/>
<path d="M26.446 8.50708V4.78752H26.8393V8.16701H28.9222V8.50708H26.446ZM29.5751 8.50708V4.78752H32.1256V5.1276H29.9683V8.16701H32.2053V8.50708H29.5751ZM29.9258 6.78546V6.4507H31.8918V6.78546H29.9258ZM33.1296 8.50708V4.78752H34.5218C34.9929 4.78752 35.3631 4.90088 35.6324 5.1276C35.9051 5.35077 36.0415 5.6625 36.0415 6.0628C36.0415 6.32494 35.9795 6.55166 35.8555 6.74295C35.7351 6.9307 35.5615 7.07594 35.3348 7.17867C35.1081 7.27785 34.8371 7.32745 34.5218 7.32745H33.3475L33.5228 7.14678V8.50708H33.1296ZM35.6695 8.50708L34.7131 7.15741H35.1382L36.1 8.50708H35.6695ZM33.5228 7.17867L33.3475 6.99269H34.5112C34.8831 6.99269 35.1648 6.91121 35.356 6.74826C35.5509 6.58531 35.6483 6.35682 35.6483 6.0628C35.6483 5.76524 35.5509 5.53498 35.356 5.37202C35.1648 5.20907 34.8831 5.1276 34.5112 5.1276H33.3475L33.5228 4.94162V7.17867Z" fill="#FBF8FC"/>
<path d="M26.446 17.293V13.5734H27.8382C28.1535 13.5734 28.4245 13.6248 28.6512 13.7275C28.8779 13.8267 29.0515 13.9719 29.1719 14.1632C29.2959 14.351 29.3579 14.5795 29.3579 14.8487C29.3579 15.1108 29.2959 15.3375 29.1719 15.5288C29.0515 15.7166 28.8779 15.8618 28.6512 15.9646C28.4245 16.0673 28.1535 16.1187 27.8382 16.1187H26.6639L26.8393 15.9327V17.293H26.446ZM26.8393 15.9646L26.6639 15.7733H27.8276C28.1995 15.7733 28.4812 15.6936 28.6725 15.5341C28.8673 15.3712 28.9647 15.1427 28.9647 14.8487C28.9647 14.5511 28.8673 14.3209 28.6725 14.1579C28.4812 13.995 28.1995 13.9135 27.8276 13.9135H26.6639L26.8393 13.7275V15.9646ZM30.2082 17.293V13.5734H31.6003C32.0715 13.5734 32.4417 13.6868 32.7109 13.9135C32.9836 14.1367 33.12 14.4484 33.12 14.8487C33.12 15.1108 33.058 15.3375 32.9341 15.5288C32.8136 15.7166 32.64 15.8618 32.4133 15.9646C32.1866 16.0637 31.9156 16.1133 31.6003 16.1133H30.426L30.6014 15.9327V17.293H30.2082ZM32.7481 17.293L31.7916 15.9433H32.2167L33.1785 17.293H32.7481ZM30.6014 15.9646L30.426 15.7786H31.5897C31.9617 15.7786 32.2433 15.6971 32.4346 15.5341C32.6294 15.3712 32.7268 15.1427 32.7268 14.8487C32.7268 14.5511 32.6294 14.3209 32.4346 14.1579C32.2433 13.995 31.9617 13.9135 31.5897 13.9135H30.426L30.6014 13.7275V15.9646ZM33.453 17.293L35.1533 13.5734H35.5412L37.2416 17.293H36.8271L35.2649 13.8019H35.4243L33.8621 17.293H33.453ZM34.1225 16.2993L34.2394 15.9805H36.402L36.5189 16.2993H34.1225ZM38.3928 17.293V13.9135H37.0856V13.5734H40.0931V13.9135H38.786V17.293H38.3928ZM40.7213 17.293V13.5734H41.1145V17.293H40.7213ZM43.9401 17.3249C43.6602 17.3249 43.4016 17.2788 43.1643 17.1867C42.9269 17.091 42.7215 16.9582 42.5479 16.7882C42.3743 16.6181 42.2379 16.418 42.1388 16.1877C42.0431 15.9575 41.9953 15.706 41.9953 15.4332C41.9953 15.1604 42.0431 14.9089 42.1388 14.6787C42.2379 14.4484 42.3743 14.2482 42.5479 14.0782C42.725 13.9082 42.9323 13.7771 43.1696 13.685C43.4069 13.5894 43.6655 13.5415 43.9454 13.5415C44.2146 13.5415 44.4679 13.5876 44.7052 13.6797C44.9426 13.7682 45.1427 13.9029 45.3057 14.0835L45.056 14.3333C44.9036 14.1774 44.7354 14.0658 44.5512 13.9985C44.3669 13.9277 44.1686 13.8922 43.956 13.8922C43.7329 13.8922 43.5256 13.9312 43.3343 14.0091C43.143 14.0835 42.9765 14.1916 42.8348 14.3333C42.6931 14.4714 42.5816 14.6344 42.5001 14.8221C42.4221 15.0063 42.3832 15.21 42.3832 15.4332C42.3832 15.6564 42.4221 15.8618 42.5001 16.0496C42.5816 16.2338 42.6931 16.3967 42.8348 16.5384C42.9765 16.6766 43.143 16.7846 43.3343 16.8626C43.5256 16.937 43.7329 16.9741 43.956 16.9741C44.1686 16.9741 44.3669 16.9387 44.5512 16.8679C44.7354 16.797 44.9036 16.6837 45.056 16.5278L45.3057 16.7775C45.1427 16.9582 44.9426 17.0946 44.7052 17.1867C44.4679 17.2788 44.2129 17.3249 43.9401 17.3249ZM45.4035 17.293L47.1039 13.5734H47.4918L49.1921 17.293H48.7777L47.2155 13.8019H47.3749L45.8126 17.293H45.4035ZM46.073 16.2993L46.1899 15.9805H48.3526L48.4695 16.2993H46.073ZM49.8074 17.293V13.5734H51.1996C51.6708 13.5734 52.0409 13.6868 52.3102 13.9135C52.5829 14.1367 52.7193 14.4484 52.7193 14.8487C52.7193 15.1108 52.6573 15.3375 52.5333 15.5288C52.4129 15.7166 52.2393 15.8618 52.0126 15.9646C51.7859 16.0637 51.5149 16.1133 51.1996 16.1133H50.0253L50.2006 15.9327V17.293H49.8074ZM52.3474 17.293L51.3909 15.9433H51.816L52.7778 17.293H52.3474ZM50.2006 15.9646L50.0253 15.7786H51.189C51.5609 15.7786 51.8426 15.6971 52.0339 15.5341C52.2287 15.3712 52.3261 15.1427 52.3261 14.8487C52.3261 14.5511 52.2287 14.3209 52.0339 14.1579C51.8426 13.995 51.5609 13.9135 51.189 13.9135H50.0253L50.2006 13.7275V15.9646Z" fill="#FBF8FC"/>
<path d="M26.4658 26.0789V22.3593H29.0164V22.6994H26.859V25.7388H29.0961V26.0789H26.4658ZM26.8165 24.3572V24.0225H28.7826V24.3572H26.8165ZM31.0459 26.1107C30.7696 26.1107 30.5039 26.0665 30.2488 25.9779C29.9973 25.8858 29.8025 25.7689 29.6643 25.6272L29.8184 25.3243C29.9495 25.4518 30.1249 25.5599 30.3445 25.6485C30.5677 25.7335 30.8015 25.776 31.0459 25.776C31.2797 25.776 31.4692 25.7476 31.6145 25.691C31.7632 25.6307 31.8713 25.551 31.9386 25.4518C32.0094 25.3527 32.0449 25.2428 32.0449 25.1224C32.0449 24.9772 32.0024 24.8603 31.9173 24.7717C31.8359 24.6831 31.7278 24.6141 31.5932 24.5645C31.4586 24.5113 31.3098 24.4653 31.1469 24.4263C30.9839 24.3873 30.821 24.3466 30.658 24.3041C30.495 24.258 30.3445 24.1978 30.2063 24.1234C30.0717 24.049 29.9619 23.9516 29.8769 23.8312C29.7954 23.7072 29.7547 23.546 29.7547 23.3476C29.7547 23.1634 29.8025 22.9952 29.8981 22.8428C29.9973 22.687 30.1479 22.563 30.3498 22.4709C30.5517 22.3752 30.8103 22.3274 31.1256 22.3274C31.3346 22.3274 31.5418 22.3575 31.7473 22.4178C31.9528 22.4744 32.1299 22.5541 32.2787 22.6569L32.1458 22.9704C31.9864 22.8641 31.8164 22.7862 31.6357 22.7366C31.4586 22.687 31.2868 22.6622 31.1203 22.6622C30.8971 22.6622 30.7129 22.6923 30.5677 22.7525C30.4224 22.8127 30.3144 22.8942 30.2435 22.9969C30.1762 23.0961 30.1426 23.2095 30.1426 23.337C30.1426 23.4823 30.1833 23.5992 30.2648 23.6877C30.3498 23.7763 30.4596 23.8454 30.5942 23.8949C30.7324 23.9445 30.8829 23.9888 31.0459 24.0278C31.2088 24.0668 31.37 24.1093 31.5294 24.1553C31.6924 24.2014 31.8412 24.2616 31.9758 24.336C32.1139 24.4068 32.2238 24.5025 32.3052 24.6229C32.3903 24.7434 32.4328 24.901 32.4328 25.0958C32.4328 25.2765 32.3832 25.4448 32.284 25.6006C32.1848 25.753 32.0325 25.8769 31.827 25.9726C31.6251 26.0647 31.3647 26.1107 31.0459 26.1107ZM34.9049 26.1107C34.625 26.1107 34.3664 26.0647 34.1291 25.9726C33.8917 25.8769 33.6863 25.7441 33.5127 25.5741C33.3391 25.404 33.2027 25.2039 33.1035 24.9736C33.0079 24.7434 32.9601 24.4918 32.9601 24.2191C32.9601 23.9463 33.0079 23.6948 33.1035 23.4645C33.2027 23.2343 33.3391 23.0341 33.5127 22.8641C33.6898 22.6941 33.897 22.563 34.1344 22.4709C34.3717 22.3752 34.6303 22.3274 34.9102 22.3274C35.1794 22.3274 35.4327 22.3735 35.67 22.4656C35.9074 22.5541 36.1075 22.6887 36.2705 22.8694L36.0207 23.1192C35.8684 22.9633 35.7001 22.8517 35.5159 22.7844C35.3317 22.7135 35.1333 22.6781 34.9208 22.6781C34.6976 22.6781 34.4904 22.7171 34.2991 22.795C34.1078 22.8694 33.9413 22.9775 33.7996 23.1192C33.6579 23.2573 33.5463 23.4203 33.4649 23.608C33.3869 23.7922 33.348 23.9959 33.348 24.2191C33.348 24.4423 33.3869 24.6477 33.4649 24.8355C33.5463 25.0197 33.6579 25.1826 33.7996 25.3243C33.9413 25.4625 34.1078 25.5705 34.2991 25.6485C34.4904 25.7228 34.6976 25.76 34.9208 25.76C35.1333 25.76 35.3317 25.7246 35.5159 25.6538C35.7001 25.5829 35.8684 25.4696 36.0207 25.3137L36.2705 25.5634C36.1075 25.7441 35.9074 25.8805 35.67 25.9726C35.4327 26.0647 35.1776 26.1107 34.9049 26.1107ZM37.0568 26.0789V22.3593H38.449C38.9201 22.3593 39.2903 22.4727 39.5595 22.6994C39.8323 22.9225 39.9687 23.2343 39.9687 23.6346C39.9687 23.8967 39.9067 24.1234 39.7827 24.3147C39.6623 24.5025 39.4887 24.6477 39.262 24.7504C39.0353 24.8496 38.7643 24.8992 38.449 24.8992H37.2747L37.45 24.7186V26.0789H37.0568ZM39.5967 26.0789L38.6403 24.7292H39.0654L40.0271 26.0789H39.5967ZM37.45 24.7504L37.2747 24.5645H38.4384C38.8103 24.5645 39.0919 24.483 39.2832 24.32C39.4781 24.1571 39.5755 23.9286 39.5755 23.6346C39.5755 23.337 39.4781 23.1068 39.2832 22.9438C39.0919 22.7808 38.8103 22.6994 38.4384 22.6994H37.2747L37.45 22.5134V24.7504ZM40.8967 26.0789V22.3593H43.4473V22.6994H41.29V25.7388H43.527V26.0789H40.8967ZM41.2474 24.3572V24.0225H43.2135V24.3572H41.2474ZM45.4568 26.0789L43.8096 22.3593H44.2347L45.7756 25.861H45.5418L47.0934 22.3593H47.4919L45.8447 26.0789H45.4568ZM48.0318 26.0789V22.3593H50.5823V22.6994H48.425V25.7388H50.662V26.0789H48.0318ZM48.3825 24.3572V24.0225H50.3485V24.3572H48.3825ZM51.5863 26.0789V22.3593H52.9785C53.4496 22.3593 53.8198 22.4727 54.0891 22.6994C54.3618 22.9225 54.4982 23.2343 54.4982 23.6346C54.4982 23.8967 54.4362 24.1234 54.3122 24.3147C54.1918 24.5025 54.0182 24.6477 53.7915 24.7504C53.5648 24.8496 53.2938 24.8992 52.9785 24.8992H51.8042L51.9795 24.7186V26.0789H51.5863ZM54.1262 26.0789L53.1698 24.7292H53.5949L54.5567 26.0789H54.1262ZM51.9795 24.7504L51.8042 24.5645H52.9679C53.3398 24.5645 53.6214 24.483 53.8127 24.32C54.0076 24.1571 54.105 23.9286 54.105 23.6346C54.105 23.337 54.0076 23.1068 53.8127 22.9438C53.6214 22.7808 53.3398 22.6994 52.9679 22.6994H51.8042L51.9795 22.5134V24.7504Z" fill="#FBF8FC"/>
</svg>
