<svg width="20" height="19" viewBox="0 0 20 19" fill="none" xmlns="http://www.w3.org/2000/svg">
<path d="M16.8824 9.49946C16.8824 7.86491 16.8794 6.75826 16.7686 5.95391C16.6612 5.17462 16.4797 4.91061 16.2981 4.7642C16.0599 4.57221 15.5852 4.38876 14.5 4.29153C13.4398 4.19656 12.0055 4.19507 10 4.19507C7.99452 4.19507 6.56018 4.19656 5.5 4.29153C4.41483 4.38876 3.94014 4.57221 3.70186 4.7642C3.52027 4.91061 3.33879 5.17462 3.23139 5.95391C3.12056 6.75826 3.11765 7.86491 3.11765 9.49946C3.11765 11.1343 3.12053 12.2417 3.23139 13.0461C3.3388 13.8252 3.52028 14.0894 3.70186 14.2358C3.94019 14.4277 4.41506 14.6113 5.5 14.7085C6.56018 14.8034 7.99452 14.8049 10 14.8049C12.0055 14.8049 13.4398 14.8034 14.5 14.7085C15.5849 14.6113 16.0598 14.4277 16.2981 14.2358C16.4797 14.0894 16.6612 13.8252 16.7686 13.0461C16.8795 12.2417 16.8824 11.1343 16.8824 9.49946ZM19 9.49946C19 11.0655 19.0028 12.3597 18.8656 13.3558C18.7248 14.377 18.4097 15.314 17.5989 15.9678C16.8445 16.5761 15.8298 16.7932 14.682 16.896C13.5087 17.0011 11.965 17 10 17C8.03502 17 6.49127 17.0011 5.31802 16.896C4.17017 16.7932 3.15551 16.5761 2.40108 15.9678C1.5903 15.314 1.27517 14.377 1.13443 13.3558C0.997204 12.3597 1 11.0655 1 9.49946C1 7.93333 0.997138 6.63924 1.13443 5.64309C1.2752 4.6218 1.59009 3.68493 2.40108 3.03108C3.15551 2.42286 4.17017 2.20679 5.31802 2.10397C6.49127 1.99888 8.035 2 10 2C11.965 2 13.5087 1.99888 14.682 2.10397C15.8298 2.20679 16.8445 2.42286 17.5989 3.03108C18.4099 3.68493 18.7248 4.6218 18.8656 5.64309C19.0029 6.63924 19 7.93333 19 9.49946Z" fill="#FBF8FC"/>
<path d="M8.2353 6.29868L13.5294 9.49982L8.2353 12.701V6.29868Z" fill="#FBF8FC"/>
</svg>
